/vscmnt/brussel_pixiu_data/_data_brussel/112/vsc11236/PredSimResults/SUBJ11opt3D/weighted-LRposFixed/expIG/worker_02.mot
version=1
nRows=10
nColumns=50
inDegrees=yes
endheader
                time	         pelvis_tilt	         pelvis_list	     pelvis_rotation	           pelvis_tx	           pelvis_ty	           pelvis_tz	       hip_flexion_r	     hip_adduction_r	      hip_rotation_r	        knee_angle_r	       ankle_angle_r	         mtp_angle_r	       hip_flexion_l	     hip_adduction_l	      hip_rotation_l	        knee_angle_l	       ankle_angle_l	         mtp_angle_l	    lumbar_extension	      lumbar_bending	     lumbar_rotation	 ercspn_r/activation	 intobl_r/activation	 extobl_r/activation	    abd_r/activation	    add_r/activation	hamstrings_r/activation	bifemsh_r/activation	glut_max_r/activation	iliopsoas_r/activation	rect_fem_r/activation	  vasti_r/activation	gastroc_r/activation	 soleus_r/activation	tib_ant_r/activation	 ercspn_l/activation	 intobl_l/activation	 extobl_l/activation	    abd_l/activation	    add_l/activation	hamstrings_l/activation	bifemsh_l/activation	glut_max_l/activation	iliopsoas_l/activation	rect_fem_l/activation	  vasti_l/activation	gastroc_l/activation	 soleus_l/activation	tib_ant_l/activation	
          1.39885482	         -2.74606574	         -1.20227399	          5.97777181	          1.45480901	          0.94243336	         -0.00521153	         30.95211096	         -1.69647707	         -3.98586083	         -9.72920438	          1.72297345	          0.22386519	        -13.53595139	         -3.18031266	         -1.60343217	        -11.82647309	         13.04519187	         28.53191071	        -14.39543552	         -2.46652698	         -3.24625597	          0.02796864	          0.26009142	          0.07003687	          0.01000024	          0.18951331	          0.04279971	          0.12885933	          0.03426830	          0.10534802	          0.04446805	          0.01784683	          0.01000014	          0.01000002	          0.40457760	          0.01000035	          0.01000021	          0.01000029	          0.04241922	          0.01000062	          0.01729470	          0.27498732	          0.02851326	          0.16353843	          0.01000107	          0.01000027	          0.16157879	          0.32759313	          0.01479946	
          1.41284337	         -2.89143037	         -1.25678765	          6.07399738	          1.47328537	          0.94015985	         -0.00390398	         30.76053633	         -1.49970665	         -4.20366045	        -10.80457010	          1.18917677	          0.23340935	        -14.07691564	         -3.43842236	         -1.96537953	        -12.56334966	         12.31569399	         30.33795703	        -13.94383085	         -1.95559836	         -3.45829010	          0.02268121	          0.21091775	          0.05679545	          0.01000010	          0.21111445	          0.03875691	          0.10449733	          0.09597173	          0.08543056	          0.03606094	          0.01447271	          0.01242224	          0.01289810	          0.42585209	          0.01544094	          0.01000044	          0.01000058	          0.03439931	          0.04610746	          0.02618397	          0.22301317	          0.02312263	          0.17542366	          0.01000146	          0.01000046	          0.13309750	          0.30875916	          0.01200146	
          1.42683191	         -3.01355053	         -1.32444214	          6.15118488	          1.49222836	          0.93816008	         -0.00254179	         30.46837136	         -1.32216632	         -4.33649650	        -12.02734655	          0.70043288	          0.20990219	        -14.49038212	         -3.72312204	         -2.33491417	        -13.59289436	         11.43649153	         32.22986670	        -13.45234695	         -1.42035381	         -3.66863892	          0.01839512	          0.17104097	          0.04605751	          0.05519342	          0.20922484	          0.04651047	          0.08474121	          0.11610325	          0.06927876	          0.02924329	          0.01173655	          0.01007375	          0.01045957	          0.49459331	          0.01252224	          0.01000013	          0.01000060	          0.02789567	          0.03739053	          0.02123430	          0.18085219	          0.01875106	          0.15899392	          0.01000092	          0.01000025	          0.10793365	          0.28363774	          0.01000011	
          1.44082046	         -3.11552627	         -1.38451074	          6.19814599	          1.51128278	          0.93666125	         -0.00109219	         30.18411463	         -1.16410839	         -4.54813870	        -13.25513093	         -0.01875187	          0.18297778	        -14.67546699	         -4.01317141	         -2.71449200	        -15.03613467	         10.35795929	         34.21551773	        -12.96408696	         -0.89097219	         -3.86668152	          0.02716955	          0.13870339	          0.03734972	          0.09089738	          0.24898098	          0.04650249	          0.06872008	          0.11434348	          0.05618067	          0.02371460	          0.03549411	          0.01000020	          0.01000007	          0.55495569	          0.04000841	          0.01000017	          0.01000034	          0.02262162	          0.03312905	          0.02793351	          0.14666079	          0.01520601	          0.12893955	          0.01000072	          0.01000025	          0.08752734	          0.25557983	          0.01000011	
          1.45480901	         -3.19692489	         -1.43639330	          6.21687131	          1.53023936	          0.93579198	          0.00043533	         29.98130824	         -1.02635187	         -4.81697381	        -14.66596108	         -0.59427265	          0.13522609	        -14.56226310	         -4.31138251	         -3.09994742	        -16.98309397	          9.06153238	         36.24635428	        -12.50013229	         -0.37025656	         -4.04929036	          0.02954054	          0.11247965	          0.03028826	          0.11858738	          0.28140715	          0.05292464	          0.05572804	          0.11396176	          0.04555896	          0.01923117	          0.11371605	          0.01000029	          0.01000011	          0.58923206	          0.06537885	          0.01000019	          0.01000028	          0.01834471	          0.09804777	          0.02947729	          0.11893412	          0.01233118	          0.10456424	          0.01000047	          0.01000012	          0.07097912	          0.21279989	          0.01000009	
          1.46879756	         -3.25980975	         -1.47773009	          6.20602214	          1.54892804	          0.93569923	          0.00201177	         29.79158201	         -0.89662176	         -5.08706150	        -16.16486586	         -0.80054094	          0.07958114	        -14.08011556	         -4.61631783	         -3.49393770	        -19.52325211	          7.54034488	         38.17413241	        -12.07442060	          0.13908714	         -4.21108463	          0.02395632	          0.09121387	          0.02456187	          0.13484516	          0.30430094	          0.05507038	          0.04519240	          0.13145335	          0.03694543	          0.01559541	          0.15935245	          0.01000027	          0.01000008	          0.57765751	          0.09016683	          0.01000021	          0.01000035	          0.01487640	          0.16055479	          0.04114094	          0.09645034	          0.01000011	          0.08479560	          0.01000031	          0.01000007	          0.05755956	          0.17256718	          0.01000008	
          1.48278611	         -3.30634998	         -1.50723638	          6.16321937	          1.56716612	          0.93647189	          0.00359841	         29.55555640	         -0.76242632	         -5.30814667	        -17.65312955	         -0.52116174	          0.04290198	        -13.17296835	         -4.92861568	         -3.90670120	        -22.71564540	          5.81590691	         39.73445138	        -11.70252408	          0.63798095	         -4.34589723	          0.01942738	          0.07396868	          0.01991813	          0.14562481	          0.31788380	          0.05918163	          0.03664899	          0.12768769	          0.02996041	          0.01264705	          0.19313649	          0.01000022	          0.01000007	          0.51120654	          0.10313041	          0.01000039	          0.01000036	          0.01206383	          0.20626495	          0.05469108	          0.08495477	          0.01000007	          0.06876414	          0.01000016	          0.01000003	          0.04667715	          0.13994100	          0.01000019	
          1.49677466	         -3.33812394	         -1.51282007	          6.08706458	          1.58485051	          0.93809648	          0.00515073	         29.19739316	         -0.62125841	         -5.43453363	        -18.97109025	          0.16853133	          0.09192309	        -11.82317162	         -5.24503082	         -4.37384929	        -26.59104512	          4.10209652	         40.27245369	        -11.39220037	          1.11658413	         -4.45056916	          0.01575456	          0.05998392	          0.01615236	          0.14681097	          0.30768431	          0.06146220	          0.02972107	          0.12058668	          0.02429600	          0.01025621	          0.24027118	          0.01000049	          0.01000013	          0.42032662	          0.10048486	          0.01000058	          0.01000097	          0.01000003	          0.25673692	          0.05942284	          0.06889638	          0.01000006	          0.05576354	          0.01000015	          0.01000003	          0.03785221	          0.11348324	          0.01000009	
          1.51076320	         -3.35737291	         -1.47461426	          5.96987234	          1.60194151	          0.94055807	          0.00662486	         28.61437978	         -0.48225647	         -5.45627106	        -19.89470392	          1.04207232	          0.28695273	        -10.05388037	         -5.55604246	         -4.89237540	        -31.06462329	          2.31445779	         39.68238736	        -11.14694660	          1.55731055	         -4.51805490	          0.01277616	          0.04864318	          0.01309858	          0.13533582	          0.28695391	          0.06619701	          0.02410321	          0.09778880	          0.01970252	          0.01000052	          0.26465118	          0.01000031	          0.01000007	          0.34386061	          0.08226434	          0.01000063	          0.03043390	          0.01000004	          0.29613280	          0.05127194	          0.06309220	          0.01000005	          0.04522086	          0.01000012	          0.01000002	          0.03069575	          0.09202768	          0.01000011	
          1.52475175	         -3.36606617	         -1.37208715	          5.80276018	          1.61842304	          0.94375750	          0.00800355	         27.76962552	         -0.36667941	         -5.38356692	        -20.31314287	          1.84473656	          0.57890003	         -7.93420137	         -5.84623937	         -5.43524121	        -35.91899692	          0.24457029	         38.15583732	        -10.97189917	          1.93880759	         -4.54671688	          0.01036103	          0.03944656	          0.01062221	          0.11398003	          0.26497983	          0.06731198	          0.01954668	          0.07930085	          0.01597751	          0.01000051	          0.26630621	          0.01000027	          0.01000006	          0.29024858	          0.06675446	          0.01102607	          0.06045769	          0.01000004	          0.31146871	          0.04157839	          0.07079778	          0.01000006	          0.03667146	          0.01000010	          0.01000001	          0.02489231	          0.07462859	          0.01000024	
